<?xml version="1.0" encoding="utf-8"?>
<svg width="250px" height="250px" viewBox="0 0 250 250" version="1.1" xmlns:xlink="http://www.w3.org/1999/xlink" xmlns="http://www.w3.org/2000/svg">
  <defs>
    <path d="M0 0L250 0L250 250L0 250L0 0Z" id="path_1" />
    <path d="M5 5L30 5L30 160L125 215L220 160L220 5L245 5L245 174.8L125 245L4.25213 175L5 5Z" id="path_2" />
    <path d="M60 95L85 95L85 160L60 145L60 95Z" id="path_3" />
    <path d="M112.5 60L137.5 60L137.5 174L125 181.5L112.5 174L112.5 60Z" id="path_4" />
    <path d="M165 30L190 30L190 145L165 160L165 30Z" id="path_5" />
    <clipPath id="clip_1">
      <use xlink:href="#path_1" />
    </clipPath>
  </defs>
  <g id="unpoly" clip-path="url(#clip_1)">
    <path d="M0 0L250 0L250 250L0 250L0 0Z" id="unpoly" fill="none" fill-rule="evenodd" stroke="none" />
    <g id="Vector-2">
      <use xlink:href="#path_2" fill="none" stroke="#FFFFFF" stroke-width="2" stroke-linecap="round" stroke-linejoin="round" />
      <use stroke="none" fill="#FFFFFF" xlink:href="#path_2" fill-rule="evenodd" />
    </g>
    <g id="Vector-3">
      <use xlink:href="#path_3" fill="none" stroke="#FFFFFF" stroke-width="2" stroke-linecap="round" stroke-linejoin="round" />
      <use stroke="none" fill="#FFFFFF" xlink:href="#path_3" fill-rule="evenodd" />
    </g>
    <g id="Vector-4">
      <use xlink:href="#path_4" fill="none" stroke="#FFFFFF" stroke-width="2" stroke-linecap="round" stroke-linejoin="round" />
      <use stroke="none" fill="#FFFFFF" xlink:href="#path_4" fill-rule="evenodd" />
    </g>
    <g id="Vector-5">
      <use xlink:href="#path_5" fill="none" stroke="#FFFFFF" stroke-width="2" stroke-linecap="round" stroke-linejoin="round" />
      <use stroke="none" fill="#FFFFFF" xlink:href="#path_5" fill-rule="evenodd" />
    </g>
  </g>
</svg>